<svg xmlns="http://www.w3.org/2000/svg" width="16" height="16" viewBox="0 0 16 16" fill="none">
    <g clip-path="url(#clip0_822_8026)">
        <path d="M14.52 12.545H14.13V5.94997C14.13 5.90389 14.1173 5.8587 14.0933 5.81939C14.0692 5.78008 14.0348 5.74818 13.9937 5.72722L13.131 5.28697L13.7657 4.06647C13.7951 4.00778 13.8002 3.93991 13.78 3.87748C13.7598 3.81506 13.7158 3.7631 13.6576 3.73281C13.5994 3.70252 13.5316 3.69634 13.4688 3.71559C13.4061 3.73484 13.3535 3.77799 13.3223 3.83572L11.8202 6.72297C11.8045 6.75214 11.7947 6.78416 11.7914 6.81716C11.7881 6.85016 11.7915 6.88348 11.8012 6.91519C11.8109 6.94689 11.8268 6.97634 11.8481 7.00182C11.8693 7.02731 11.8954 7.04831 11.9248 7.06362C11.9542 7.07892 11.9864 7.08822 12.0194 7.09098C12.0525 7.09373 12.0857 7.08988 12.1173 7.07965C12.1488 7.06942 12.178 7.05302 12.2032 7.0314C12.2283 7.00978 12.2489 6.98337 12.2638 6.95372L12.9 5.72997L13.6298 6.10247V12.545H3.563L4.9825 10.305C5.03959 10.2145 5.08022 10.1146 5.1025 10.01L5.1975 9.55247L4.44 9.27497C4.09197 9.12631 3.79606 8.8774 3.59 8.55997L3.3975 9.48997L2.0075 11.6825C1.9273 11.8106 1.88119 11.9571 1.87353 12.108C1.86588 12.259 1.89693 12.4094 1.96375 12.545H1.48C1.15378 12.545 0.840928 12.6746 0.610259 12.9052C0.379589 13.1359 0.25 13.4488 0.25 13.775C0.25 14.1012 0.379589 14.414 0.610259 14.6447C0.840928 14.8754 1.15378 15.005 1.48 15.005H14.52C14.8462 15.005 15.1591 14.8754 15.3897 14.6447C15.6204 14.414 15.75 14.1012 15.75 13.775C15.75 13.4488 15.6204 13.1359 15.3897 12.9052C15.1591 12.6746 14.8462 12.545 14.52 12.545Z" fill="#E63946"/>
        <path d="M8.6475 5.09994L8.575 5.02494C8.57462 5.36844 8.47477 5.70448 8.2875 5.99244L7.9075 6.58494C7.98249 6.6754 8.07645 6.74827 8.18273 6.79839C8.289 6.8485 8.405 6.87464 8.5225 6.87494C8.66635 6.87502 8.80741 6.83521 8.93 6.75994L11.0425 5.46494C11.1306 5.4117 11.2072 5.34158 11.2681 5.25862C11.3289 5.17566 11.3728 5.08149 11.3972 4.98152C11.4215 4.88155 11.4259 4.77775 11.41 4.67608C11.3941 4.57442 11.3583 4.4769 11.3046 4.38912C11.251 4.30134 11.1804 4.22504 11.0972 4.16459C11.0139 4.10415 10.9195 4.06075 10.8194 4.0369C10.7193 4.01305 10.6155 4.00921 10.5139 4.0256C10.4123 4.042 10.315 4.07831 10.2275 4.13244L8.6475 5.09994Z" fill="#E63946"/>
        <path d="M2.26001 5.64493C2.36434 5.82364 2.53471 5.95419 2.7344 6.00844C2.93409 6.06268 3.1471 6.03629 3.32751 5.93493L4.67251 5.16493L5.09251 5.18493L4.01001 6.87743C3.90829 7.04007 3.84295 7.22278 3.81847 7.41304C3.79399 7.60329 3.81095 7.79659 3.86818 7.97968C3.92541 8.16277 4.02156 8.33132 4.15003 8.47376C4.27851 8.6162 4.43628 8.72918 4.61251 8.80493L6.18251 9.38243L5.37001 10.6974C5.25043 10.8982 5.2148 11.138 5.27084 11.3649C5.32688 11.5918 5.47008 11.7875 5.66939 11.9095C5.8687 12.0315 6.10808 12.0701 6.33562 12.0168C6.56317 11.9635 6.76056 11.8227 6.88501 11.6249L8.26001 9.38493C8.32942 9.2733 8.37287 9.14749 8.38715 9.01682C8.40143 8.88614 8.38617 8.75392 8.34251 8.62993C8.29902 8.50625 8.22873 8.39371 8.13667 8.30036C8.04462 8.207 7.93307 8.13515 7.81001 8.08993L6.63001 7.65493L7.86751 5.72243C8.05444 5.42917 8.11757 5.07379 8.04307 4.73409C7.96857 4.39439 7.76251 4.09805 7.47001 3.90993C7.46371 3.90521 7.45702 3.90103 7.45001 3.89743C6.93751 3.55243 5.07001 3.57493 4.52501 3.59243C4.37464 3.58273 4.22483 3.61844 4.09501 3.69493L2.55001 4.57743C2.46083 4.62844 2.38258 4.69653 2.31974 4.7778C2.25689 4.85907 2.21068 4.95193 2.18374 5.05107C2.15681 5.15022 2.14968 5.25369 2.16277 5.35559C2.17586 5.45749 2.2089 5.55581 2.26001 5.64493ZM9.33501 2.37493C9.33501 2.1015 9.25393 1.83421 9.10202 1.60686C8.95011 1.37951 8.73419 1.20231 8.48157 1.09767C8.22895 0.993031 7.95098 0.965653 7.6828 1.019C7.41462 1.07234 7.16828 1.20401 6.97493 1.39736C6.78159 1.5907 6.64992 1.83704 6.59657 2.10522C6.54323 2.3734 6.57061 2.65137 6.67525 2.90399C6.77988 3.15661 6.95708 3.37253 7.18443 3.52444C7.41178 3.67635 7.67908 3.75743 7.95251 3.75743C8.31911 3.75723 8.67064 3.61151 8.92986 3.35229C9.18909 3.09306 9.33481 2.74153 9.33501 2.37493Z" fill="#E63946"/>
    </g>
    <defs>
        <clipPath id="clip0_822_8026">
            <rect width="16" height="16" fill="white"/>
        </clipPath>
    </defs>
</svg>