<svg xmlns="http://www.w3.org/2000/svg" width="34" height="34" viewBox="0 0 34 34" fill="none">
    <g clip-path="url(#clip0_1377_335)">
        <path d="M11.4881 14.0108H10.1889C10.3647 14.3114 10.5468 14.6085 10.7348 14.9016C10.9611 14.5846 11.2131 14.2866 11.4881 14.0108ZM6.44435 14.0993L6.44022 14.0907C6.4263 14.0644 6.41306 14.0377 6.40052 14.0106H4.79994C4.8577 14.4563 5.1852 14.8397 5.64903 14.9449C5.67218 14.9481 6.25372 15.0828 7.05305 15.1981C6.84615 14.8369 6.64452 14.4727 6.44821 14.1056L6.44435 14.0993ZM13.272 10.7779V12.2538H13.7525C13.4858 11.7379 13.3468 11.1656 13.3472 10.5848C13.3472 9.39031 13.9236 8.32799 14.8129 7.66127H14.3372C14.2689 7.66127 14.2023 7.6683 14.1374 7.68071C13.9202 7.64406 13.697 7.6737 13.4968 7.76575C13.4026 7.80972 12.6742 8.15542 11.8759 9.01843C11.2222 9.72181 10.534 10.7866 10.1494 12.2539H12.4564C12.6854 11.6243 12.9801 11.1451 13.272 10.7779ZM27.5595 14.0907L27.5464 14.1151C27.4458 14.3034 27.2284 14.7051 26.9465 15.1981C27.7459 15.0828 28.3274 14.9482 28.3508 14.9449C28.8145 14.8396 29.142 14.4563 29.1998 14.0106H27.5993C27.5867 14.0377 27.5736 14.0644 27.5595 14.0907ZM23.8109 14.0108H22.5116C22.7868 14.2864 23.0387 14.5843 23.2649 14.9014C23.452 14.6077 23.634 14.3108 23.8109 14.0108ZM20.6529 10.5848C20.6529 11.1859 20.5061 11.7531 20.2476 12.2538H20.728V10.7778C21.0196 11.146 21.3145 11.6245 21.5434 12.2538H23.85C23.4654 10.7863 22.7772 9.72154 22.1239 9.01829C21.3254 8.15528 20.5969 7.80958 20.5029 7.76561C20.3027 7.67366 20.0796 7.64399 19.8624 7.68043C19.7966 7.66776 19.7297 7.6613 19.6628 7.66113H19.1872C20.0764 8.32799 20.6529 9.39031 20.6529 10.5848ZM11.9276 31.4552C11.8351 32.3921 12.5196 33.2261 13.4559 33.3186C14.3927 33.4111 15.2271 32.7271 15.3196 31.7903L15.7553 27.3778H12.3302L11.9276 31.4552ZM18.6804 31.7901C18.7729 32.727 19.6074 33.411 20.5441 33.3185C21.4804 33.226 22.1649 32.3919 22.0724 31.455L21.6698 27.3775H18.2447L18.6804 31.7901Z" fill="white"/>
        <path d="M17 6.87581C18.7128 6.87581 20.1014 5.48729 20.1014 3.77446C20.1014 2.06162 18.7128 0.673096 17 0.673096C15.2872 0.673096 13.8986 2.06162 13.8986 3.77446C13.8986 5.48729 15.2872 6.87581 17 6.87581Z" fill="white"/>
        <path d="M17.517 25.139C17.3398 25.1144 17.1661 25.0683 17 25.0017C16.8336 25.0683 16.6598 25.1144 16.4823 25.139L11.916 25.777L11.774 26.8263H22.2254L22.0835 25.777L17.517 25.139Z" fill="white"/>
        <path d="M1.01656 14.9239C1.01656 14.9715 1.03544 15.017 1.06904 15.0507C1.10264 15.0843 1.14822 15.1031 1.19575 15.1031H1.73332C1.75206 15.1031 1.76915 15.0978 1.78611 15.0924V15.8888C1.78611 15.9619 1.81515 16.032 1.86685 16.0837C1.91855 16.1354 1.98867 16.1645 2.06178 16.1645H2.88881C2.96193 16.1645 3.03205 16.1354 3.08375 16.0837C3.13544 16.032 3.16449 15.9619 3.16449 15.8888V13.4594H6.81003C6.82644 13.5865 6.8642 13.7129 6.92761 13.8331C6.93464 13.8459 7.51728 14.9512 8.22095 16.0834C8.57436 16.6512 8.95383 17.2231 9.33482 17.6956C9.52793 17.933 9.71745 18.1459 9.94392 18.3389C10.0589 18.4352 10.1833 18.5284 10.3477 18.6146C10.5114 18.6971 10.7249 18.7842 11.0246 18.7871L11.0498 18.7874C11.3242 18.7874 11.6596 18.6671 11.876 18.4694C12.1043 18.2685 12.2158 18.0454 12.2837 17.8595C12.567 17.0727 12.9227 16.5251 13.2722 16.1346V21.6099C13.2722 21.6136 13.2727 21.6172 13.2727 21.621L9.69071 22.1213C8.94322 22.2259 8.35231 22.8193 8.25141 23.5671L7.19433 31.378C7.06917 32.3022 7.71715 33.1526 8.64149 33.2778C8.71827 33.2881 8.79449 33.2932 8.86989 33.2932C9.70174 33.2932 10.4265 32.6781 10.5409 31.831L11.426 25.289L16.4067 24.5932C16.6155 24.5637 16.8168 24.4954 17.0003 24.3916C17.1837 24.4955 17.3851 24.5638 17.5938 24.5932L22.5742 25.289L23.4594 31.831C23.5741 32.6781 24.2987 33.2934 25.1305 33.2934C25.2059 33.2934 25.2821 33.2883 25.3589 33.2779C26.2831 33.1529 26.9308 32.3023 26.8061 31.3781L25.7491 23.5675C25.648 22.8196 25.0569 22.2259 24.3097 22.1216L20.7278 21.6212C20.7278 21.6174 20.7284 21.6138 20.7284 21.6099V16.1353C21.0777 16.5258 21.4336 17.0723 21.7165 17.8585C21.7837 18.0447 21.8949 18.2676 22.123 18.4686C22.3393 18.6667 22.6751 18.7873 22.9498 18.7873C22.9585 18.7873 22.9669 18.7871 22.9753 18.7869C23.2752 18.7842 23.4885 18.6971 23.6522 18.6143C23.9553 18.4518 24.1419 18.2708 24.3351 18.0737C24.6624 17.729 24.9681 17.3132 25.2758 16.8613C26.1866 15.5143 27.0622 13.8507 27.0725 13.833C27.1359 13.7129 27.1736 13.5865 27.19 13.4593H30.8361V15.8887C30.8361 15.9618 30.8651 16.0319 30.9168 16.0836C30.9685 16.1353 31.0386 16.1644 31.1117 16.1644H31.9388C32.0119 16.1644 32.082 16.1353 32.1337 16.0836C32.1854 16.0319 32.2144 15.9618 32.2144 15.8887V15.0924C32.2314 15.0976 32.2485 15.103 32.2672 15.103H32.8048C32.8523 15.103 32.8979 15.0841 32.9315 15.0505C32.9651 15.0169 32.984 14.9713 32.984 14.9238V13.4594H34.0004V12.8047H32.984V11.3402C32.984 11.2926 32.9651 11.2471 32.9315 11.2134C32.8979 11.1798 32.8523 11.161 32.8048 11.161H32.2672C32.2485 11.161 32.2314 11.1663 32.2144 11.1717V10.3753C32.2144 10.3022 32.1854 10.2321 32.1337 10.1804C32.082 10.1287 32.0119 10.0996 31.9388 10.0996H31.1117C31.0386 10.0996 30.9685 10.1287 30.9168 10.1804C30.8651 10.2321 30.8361 10.3022 30.8361 10.3753V12.8047H27.0729C26.9697 12.6077 26.8091 12.4469 26.6123 12.3433C26.4843 12.2757 26.3442 12.2339 26.2 12.2204C26.0559 12.2069 25.9105 12.2219 25.7721 12.2646C25.6338 12.3073 25.5052 12.3768 25.3937 12.4693C25.2823 12.5617 25.1901 12.6751 25.1225 12.8032L25.1217 12.8047H19.5785C18.9537 13.5294 18.0299 13.9897 17.0001 13.9897C15.9705 13.9897 15.0468 13.5294 14.422 12.8047H8.87857L8.87788 12.8033C8.78413 12.6258 8.64371 12.4773 8.47175 12.3737C8.29979 12.2701 8.10282 12.2155 7.90208 12.2157C7.70135 12.2158 7.50446 12.2708 7.33266 12.3746C7.16086 12.4784 7.02067 12.6272 6.9272 12.8048H3.16449V10.3753C3.16449 10.3022 3.13544 10.2321 3.08375 10.1804C3.03205 10.1287 2.96193 10.0996 2.88881 10.0996H2.06178C1.98867 10.0996 1.91855 10.1287 1.86685 10.1804C1.81515 10.2321 1.78611 10.3022 1.78611 10.3753V11.1716C1.76917 11.1653 1.75136 11.1617 1.73332 11.161H1.19575C1.14822 11.161 1.10264 11.1798 1.06904 11.2134C1.03544 11.2471 1.01656 11.2926 1.01656 11.3402V12.8047H0V13.4594H1.01656V14.9239ZM24.763 13.4594C24.4836 13.9589 24.0744 14.6676 23.6581 15.3085C23.527 15.512 23.3912 15.7124 23.2508 15.9096C22.7083 14.9332 22.0468 14.2596 21.4537 13.8251C21.2731 13.6919 21.0845 13.5697 20.8891 13.4593L24.763 13.4594ZM13.1103 13.4594C12.9151 13.57 12.7266 13.6922 12.546 13.8254C11.9526 14.2596 11.291 14.9332 10.7486 15.9099C10.4094 15.4339 10.0241 14.8213 9.70643 14.2786C9.54679 14.0073 9.39016 13.7343 9.23654 13.4596L13.1103 13.4594Z" fill="white"/>
        <path d="M17 13.6864C18.7128 13.6864 20.1014 12.2978 20.1014 10.585C20.1014 8.87217 18.7128 7.48364 17 7.48364C15.2872 7.48364 13.8986 8.87217 13.8986 10.585C13.8986 12.2978 15.2872 13.6864 17 13.6864Z" fill="white"/>
    </g>
    <defs>
        <clipPath id="clip0_1377_335">
            <rect width="34" height="34" fill="white"/>
        </clipPath>
    </defs>
</svg>