<svg xmlns="http://www.w3.org/2000/svg" width="36" height="35" viewBox="0 0 36 35" fill="none">
    <g clip-path="url(#clip0_1655_533)">
        <path d="M11.9169 30.589C11.9169 31.458 11.2059 32.169 10.3369 32.169H3.80627C2.93727 32.169 2.22627 31.458 2.22627 30.589V23.4264C2.22627 22.5574 2.93727 21.8464 3.80627 21.8464H10.3369C11.2059 21.8464 11.9169 22.5574 11.9169 23.4264V30.589ZM23.5299 30.589C23.5299 31.458 22.8189 32.169 21.9499 32.169H15.4192C14.5502 32.169 13.8392 31.458 13.8392 30.589V19.6344C13.8392 18.7654 14.5502 18.0544 15.4192 18.0544H21.9499C22.8189 18.0544 23.5299 18.7654 23.5299 19.6344V30.589ZM35.1429 30.589C35.1429 31.458 34.4319 32.169 33.5629 32.169H27.0322C26.1632 32.169 25.4522 31.458 25.4522 30.589V15.4211C25.4522 14.5521 26.1632 13.8411 27.0322 13.8411H33.5629C34.4319 13.8411 35.1429 14.5521 35.1429 15.4211V30.589ZM33.7761 2.43182L26.6792 4.15844C26.1161 4.29474 25.9907 4.74146 26.4003 5.1511L27.9147 6.63008C28.0418 6.77502 27.891 6.96778 27.7713 7.04941C26.8178 7.70037 25.3044 8.65553 23.2126 9.74689C11.8245 15.6884 2.43694 15.324 2.29579 15.3175C1.54224 15.2793 0.897918 15.8598 0.858944 16.6146C0.820077 17.3698 1.40067 18.0137 2.15591 18.0526C2.21142 18.0555 2.43715 18.0657 2.81667 18.0657C5.2506 18.0657 13.9937 17.6457 24.4795 12.175C26.9606 10.8806 28.6803 9.76416 29.6844 9.05737C29.8264 8.95741 30.0738 8.78509 30.3022 9.01756L31.9585 10.6738C32.3682 11.0835 32.8127 10.9574 32.9467 10.3937L34.5567 3.20886C34.6905 2.64512 34.3391 2.29552 33.7761 2.43182Z" fill="#262621"/>
    </g>
    <defs>
        <clipPath id="clip0_1655_533">
            <rect width="34.2857" height="34.2857" fill="white" transform="translate(0.857147 0.143066)"/>
        </clipPath>
    </defs>
</svg>