<svg width="16" height="16" viewBox="0 0 16 16" fill="none" xmlns="http://www.w3.org/2000/svg">
<g clip-path="url(#clip0_839_1413)">
<path d="M12.9579 0.00365669C10.3928 0.229723 8.49998 1.51007 7.39655 3.36102C6.65705 4.28805 5.17986 7.11827 4.64263 8.59986C3.66852 10.4423 2.8191 12.6344 2.15435 14.6105C1.748 15.819 3.57256 16.6074 3.98124 15.3935C4.47838 13.915 5.07898 12.3165 5.7577 10.8331C6.43124 12.3406 7.11565 13.8431 7.85049 15.3218C8.42005 16.4698 10.1339 15.4631 9.56642 14.319C8.80985 12.7968 8.10708 11.2503 7.41465 9.69864C7.42345 9.66863 7.43457 9.6394 7.44388 9.60966C7.55924 9.64251 7.6865 9.65259 7.82669 9.62595L11.0058 9.02975C11.4588 8.94465 11.6323 8.44906 11.5609 8.05228C11.3468 6.86324 10.6693 6.03605 9.82611 5.25336C9.70092 4.82761 9.28345 4.451 8.82019 4.07673C9.75938 2.55841 11.2927 1.73433 13.2885 1.55844C14.3071 1.46921 13.9677 -0.0850626 12.9579 0.00365669ZM9.09773 6.7621C9.35975 7.03473 9.58272 7.32158 9.7511 7.65369L8.21287 7.9421C8.47153 7.52566 8.76924 7.1325 9.09773 6.7621Z" fill="#E63946"/>
<path d="M11.2911 5.40852C12.0447 5.40852 12.6556 4.79765 12.6556 4.0441C12.6556 3.29056 12.0447 2.67969 11.2911 2.67969C10.5376 2.67969 9.92673 3.29056 9.92673 4.0441C9.92673 4.79765 10.5376 5.40852 11.2911 5.40852Z" fill="#E63946"/>
</g>
<defs>
<clipPath id="clip0_839_1413">
<rect width="16" height="16" fill="white"/>
</clipPath>
</defs>
</svg>
