<svg width="16" height="16" viewBox="0 0 16 16" fill="none" xmlns="http://www.w3.org/2000/svg">
<path d="M14.8527 7.64122C14.8352 7.63372 13.2385 6.94372 11.998 8.34872C11.4152 8.13197 10.6805 8.05722 9.918 8.15697C8.90425 8.29147 8.025 8.71247 7.52425 9.26797C7.285 9.16822 6.84425 9.02122 6.3635 9.04872C6.448 8.64022 6.483 8.17422 6.42575 7.65372C6.326 6.73447 6.3235 6.09922 6.34575 5.68572L7.81325 5.88997C7.96271 5.91069 8.11484 5.90038 8.26014 5.85969C8.40544 5.819 8.54079 5.7488 8.65775 5.65347L9.649 4.84147C9.80635 4.71449 9.90976 4.53263 9.93842 4.33248C9.96709 4.13233 9.91888 3.92876 9.8035 3.76272L9.61925 3.49122C9.55175 3.61772 9.369 3.75622 9.2605 3.84997L8.4135 4.56997C7.5785 5.26022 6.457 4.15247 7.158 3.31922L7.3175 3.13497C7.532 2.89072 7.9065 3.21347 7.696 3.46147L7.53675 3.64572C7.47538 3.71517 7.4415 3.80466 7.4415 3.89734C7.4415 3.99003 7.47538 4.07952 7.53675 4.14897C7.60504 4.22702 7.70121 4.27517 7.80462 4.28307C7.90802 4.29097 8.0104 4.25799 8.08975 4.19122C8.08975 4.19122 9.42175 3.02322 9.6915 2.85372C9.64275 2.72472 9.56425 2.60222 9.45225 2.51222L7.853 1.19997C7.71656 1.08784 7.54555 1.02634 7.36895 1.02588C7.19234 1.02543 7.02102 1.08605 6.884 1.19747L4.2735 3.31222C4.206 3.36922 4.131 3.41047 4.05175 3.44422C3.72058 3.59236 3.45853 3.86147 3.31925 4.19647C2.582 5.97247 1.349 9.07147 1.3765 9.86347C1.3965 10.3717 1.2195 10.9122 1.0675 11.276C0.9005 11.6795 1.05 12.1302 1.42625 12.3495C3.3135 13.5432 10.2097 16.532 14.8652 13.9685C14.9475 13.9262 14.9998 13.8392 14.9998 13.747V7.86797C14.9997 7.82002 14.9858 7.7731 14.9598 7.73287C14.9337 7.69263 14.8965 7.6608 14.8527 7.64122Z" fill="#E63946"/>
</svg>
