<svg width="36" height="36" viewBox="0 0 36 36" fill="none" xmlns="http://www.w3.org/2000/svg">
<path d="M18.1759 27.9447C19.2516 29.0217 19.2449 30.7545 18.1759 31.8235L15.7568 34.2426C14.6967 35.3054 12.9542 35.3188 11.878 34.2426L1.75675 24.1213C0.687781 23.0517 0.687781 21.3115 1.75675 20.2425L4.1758 17.8234C5.24483 16.7543 6.9776 16.7478 8.05465 17.8234L18.1759 27.9447ZM2.16451 26.7574C1.91706 26.5099 1.50565 26.5554 1.31462 26.8486C0.555789 28.0133 0.789809 29.4174 1.65938 30.287L5.71239 34.34C6.57442 35.202 7.97745 35.45 9.15036 34.6852C9.44369 34.4939 9.4897 34.0826 9.2421 33.8349L2.16451 26.7574ZM19.8393 12.4251C19.4108 11.9973 18.7162 11.9973 18.2876 12.4251L12.4251 18.2876C11.9966 18.7162 11.9966 19.4108 12.4251 19.8393L16.16 23.5742C16.5871 24.0013 17.2817 24.0028 17.7117 23.5742L23.5742 17.7117C24.0027 17.2831 24.0027 16.5885 23.5742 16.16L19.8393 12.4251ZM33.8361 9.24074C34.0838 9.4884 34.4952 9.44225 34.6865 9.14879C35.4507 7.9756 35.1997 6.57223 34.3399 5.7124L30.2869 1.65938C29.4195 0.792556 28.0163 0.553667 26.8501 1.31319C26.5568 1.50422 26.5111 1.91569 26.7586 2.16322L33.8361 9.24074ZM24.1213 1.75675C23.0517 0.687785 21.3115 0.687099 20.2425 1.75675L17.8234 4.1758C16.7544 5.24477 16.7478 6.97753 17.8234 8.05466L27.9447 18.1759C29.0227 19.2526 30.7556 19.2438 31.8235 18.1759L34.2426 15.7568C35.3115 14.6879 35.3115 12.9476 34.2426 11.878L24.1213 1.75675Z" fill="white"/>
</svg>
